<svg width="24" height="25" viewBox="0 0 24 25" fill="none" xmlns="http://www.w3.org/2000/svg">
<path d="M8.96725 21.8562V18.5851C8.96722 17.7529 9.64554 17.0769 10.4859 17.0713H13.5645C14.4088 17.0713 15.0934 17.749 15.0934 18.5851V21.8663C15.0932 22.5728 15.6628 23.1502 16.3761 23.1667H18.4284C20.4743 23.1667 22.1329 21.5248 22.1329 19.4993V10.1937C22.122 9.39692 21.7441 8.64868 21.1067 8.16194L14.0878 2.56436C12.8581 1.58971 11.1102 1.58971 9.8805 2.56436L2.89238 8.1721C2.25262 8.65686 1.87409 9.40635 1.86621 10.2039V19.4993C1.86621 21.5248 3.52475 23.1667 5.57065 23.1667H7.62297C8.35405 23.1667 8.94671 22.5799 8.94671 21.8562" stroke="#67737A" stroke-width="1.5" stroke-linecap="round" stroke-linejoin="round"/>
</svg>
