<svg width="28" height="28" viewBox="0 0 28 28" fill="none" xmlns="http://www.w3.org/2000/svg">
<path d="M15.1668 8.16683H12.8335V12.8335H8.16683V15.1668H12.8335V19.8335H15.1668V15.1668H19.8335V12.8335H15.1668V8.16683ZM14.0002 2.3335C7.56016 2.3335 2.3335 7.56016 2.3335 14.0002C2.3335 20.4402 7.56016 25.6668 14.0002 25.6668C20.4402 25.6668 25.6668 20.4402 25.6668 14.0002C25.6668 7.56016 20.4402 2.3335 14.0002 2.3335ZM14.0002 23.3335C8.85516 23.3335 4.66683 19.1452 4.66683 14.0002C4.66683 8.85516 8.85516 4.66683 14.0002 4.66683C19.1452 4.66683 23.3335 8.85516 23.3335 14.0002C23.3335 19.1452 19.1452 23.3335 14.0002 23.3335Z" fill="#D4DCE1"/>
</svg>
