<svg width="145" height="145" viewBox="0 0 145 145" fill="none" xmlns="http://www.w3.org/2000/svg">
<path d="M140.469 52.1094H88.5859L72.5 4.53125L56.4141 52.1094H4.53125L46.4453 81.5625L30.3594 129.141L72.5 99.6875L114.414 129.141L98.3281 81.5625L140.469 52.1094Z" fill="#FFCE31"/>
<path d="M102.618 47.9995L110.999 23.9995L88.9993 39.1574L92.1421 47.9995H102.618Z" fill="#FFDF85"/>
<path d="M63.9993 111.054L72.4993 137L80.9993 111.054L72.4993 105L63.9993 111.054Z" fill="#FFDF85"/>
<path d="M112.123 77.9995L103.999 83.6211L107.42 93.9995H134.999L112.123 77.9995Z" fill="#FFDF85"/>
<path d="M55.9993 39.1574L33.9993 23.9995L42.3802 47.9995H52.8564L55.9993 39.1574Z" fill="#FFDF85"/>
<path d="M32.8751 77.9995L9.99927 93.9995H37.5786L40.9993 83.6211L32.8751 77.9995Z" fill="#FFDF85"/>
</svg>
