<svg width="64" height="64" viewBox="0 0 64 64" fill="none" xmlns="http://www.w3.org/2000/svg">
<circle cx="32.1203" cy="32.1203" r="30.7584" fill="#242D37"/>
<path fill-rule="evenodd" clip-rule="evenodd" d="M45.4924 28.8164C44.5871 23.244 39.854 19.0985 34.211 18.9353C33.9426 18.9248 33.6811 19.0214 33.4842 19.2039C33.2872 19.3863 33.1707 19.6396 33.1606 19.9079V19.9987L33.796 29.5037C33.8377 30.1434 34.3878 30.6298 35.028 30.5928L44.5589 29.9574C44.8273 29.9376 45.0769 29.8115 45.2522 29.6071C45.4274 29.4025 45.5138 29.1367 45.4924 28.8682V28.8164Z" stroke="#2287FF" stroke-width="2.125" stroke-linecap="round" stroke-linejoin="round"/>
<path d="M27.6097 24.5892C28.216 24.4489 28.8364 24.7591 29.088 25.3283C29.1539 25.4622 29.1935 25.6074 29.2047 25.7562C29.3343 27.5976 29.6066 31.6303 29.7623 33.8089C29.7888 34.2013 29.9707 34.5669 30.2676 34.8249C30.5644 35.0829 30.952 35.2119 31.3443 35.1834L39.3451 34.6906C39.7022 34.6692 40.0524 34.7963 40.3127 35.0418C40.5729 35.2873 40.7202 35.6295 40.7195 35.9874C40.3952 40.8187 36.9241 44.8577 32.1964 45.9046C27.4687 46.9515 22.6169 44.7557 20.2832 40.5129C19.5866 39.2918 19.1454 37.9418 18.9865 36.545C18.9186 36.1162 18.8925 35.682 18.9087 35.2482C18.9225 30.0887 22.546 25.6431 27.5967 24.5892" stroke="#2287FF" stroke-width="2.125" stroke-linecap="round" stroke-linejoin="round"/>
</svg>
