<svg width="28" height="28" viewBox="0 0 28 28" fill="none" xmlns="http://www.w3.org/2000/svg">
<path d="M11.3873 16.7612C10.7164 16.0915 10.3081 15.1815 10.3081 14.1607C10.3081 12.1155 11.9555 10.467 13.9995 10.467C15.011 10.467 15.942 10.8765 16.6011 11.5462" stroke="#67737A" stroke-width="1.75" stroke-linecap="round" stroke-linejoin="round"/>
<path d="M17.6219 14.8154C17.3513 16.3204 16.1659 17.5081 14.6621 17.7811" stroke="#67737A" stroke-width="1.75" stroke-linecap="round" stroke-linejoin="round"/>
<path d="M7.76384 20.3845C5.91234 18.9308 4.34434 16.8075 3.20801 14.1603C4.35601 11.5015 5.93451 9.36647 7.79767 7.90114C9.64917 6.4358 11.7853 5.64014 13.9997 5.64014C16.2268 5.64014 18.3618 6.44747 20.225 7.9233" stroke="#67737A" stroke-width="1.75" stroke-linecap="round" stroke-linejoin="round"/>
<path d="M22.6887 10.4893C23.4914 11.5556 24.1972 12.7864 24.791 14.1596C22.4962 19.4761 18.4409 22.6786 13.9994 22.6786C12.9925 22.6786 11.9997 22.5153 11.0454 22.1968" stroke="#67737A" stroke-width="1.75" stroke-linecap="round" stroke-linejoin="round"/>
<path d="M23.2014 4.95776L4.79834 23.3608" stroke="#67737A" stroke-width="1.75" stroke-linecap="round" stroke-linejoin="round"/>
</svg>
