<svg width="44" height="44" viewBox="0 0 44 44" fill="none" xmlns="http://www.w3.org/2000/svg">
<path d="M22.0004 27.8665C25.2406 27.8665 27.867 25.2401 27.867 21.9999C27.867 18.7598 25.2406 16.1333 22.0004 16.1333C18.7603 16.1333 16.1338 18.7598 16.1338 21.9999C16.1338 25.2401 18.7603 27.8665 22.0004 27.8665Z" fill="#D4DCE1"/>
<path d="M16.4998 3.6665L13.1448 7.33317H7.33317C5.3165 7.33317 3.6665 8.98317 3.6665 10.9998V32.9998C3.6665 35.0165 5.3165 36.6665 7.33317 36.6665H36.6665C38.6832 36.6665 40.3332 35.0165 40.3332 32.9998V10.9998C40.3332 8.98317 38.6832 7.33317 36.6665 7.33317H30.8548L27.4998 3.6665H16.4998ZM21.9998 31.1665C16.9398 31.1665 12.8332 27.0598 12.8332 21.9998C12.8332 16.9398 16.9398 12.8332 21.9998 12.8332C27.0598 12.8332 31.1665 16.9398 31.1665 21.9998C31.1665 27.0598 27.0598 31.1665 21.9998 31.1665Z" fill="#D4DCE1"/>
</svg>
