<svg width="400" height="154" viewBox="0 0 400 154" fill="none" xmlns="http://www.w3.org/2000/svg">
<g clip-path="url(#clip0)">
<path d="M174.931 63.2749C170.946 62.1179 168.109 63.3331 166.104 65.9633L173.226 73.1381L174.931 63.2749Z" fill="#4C60A5"/>
<path d="M165.473 122.621L170.913 120.956C170.913 120.956 174.074 113.657 177.061 104.226L168.467 105.333L165.473 122.621Z" fill="#4C60A5"/>
<path d="M162.485 102.653V123.536L164.582 122.895L167.643 105.2L162.485 102.653Z" fill="#4C60A5"/>
<path d="M171.145 84.9324L173.009 74.1119L165.58 66.6208C163.971 69.3859 162.919 72.44 162.485 75.6101V78.4151L171.145 84.9324Z" fill="#4C60A5"/>
<path d="M168.608 104.476L177.335 103.352C178.217 100.505 179.074 97.4839 179.831 94.4292L170.131 95.7526L168.608 104.476Z" fill="#4C60A5"/>
<path d="M170.979 85.8562L162.485 79.4805V90.8336L169.448 94.7373L170.979 85.8562Z" fill="#4C60A5"/>
<path d="M181.378 70.3496C180.422 67.1118 178.625 64.6813 175.688 63.541L174.024 73.3377L181.378 70.3496Z" fill="#4C60A5"/>
<path d="M171.953 85.1403L181.936 83.0428C182.496 79.0933 182.384 75.0772 181.603 71.1653L173.833 74.3032L171.953 85.1403Z" fill="#4C60A5"/>
<path d="M154.807 113.948L161.654 107.913V95.5613L152.295 103.627L154.807 113.948Z" fill="#4C60A5"/>
<path d="M170.264 94.8954L180.03 93.5387C180.804 90.3609 181.404 87.1433 181.827 83.9001L171.803 86.0476L170.264 94.8954Z" fill="#4C60A5"/>
<path d="M169.299 95.6029L162.485 91.7908V101.729L167.793 104.343L169.299 95.6029Z" fill="#4C60A5"/>
<path d="M149.034 93.6886L129.601 92.4817C130.413 96.3209 131.44 100.111 132.679 103.835L151.313 103.077L149.034 93.6886Z" fill="#4C60A5"/>
<path d="M145.956 81.0537L127.696 78.5566C127.966 82.9533 128.544 87.3256 129.427 91.6411L148.826 92.8396L145.956 81.0537Z" fill="#4C60A5"/>
<path d="M138.569 50.5815C133.395 51.855 130.192 56.6743 128.661 63.4495L142.629 67.2866L138.569 50.5815Z" fill="#4C60A5"/>
<path d="M146.522 79.8218L159.591 66.1963C158.565 63.0764 157.057 60.1361 155.124 57.4817L143.66 68.0191L146.522 79.8218Z" fill="#4C60A5"/>
<path d="M151.513 103.901L132.953 104.65C134.152 108.17 135.563 111.614 137.179 114.963L154.042 114.314L151.513 103.901Z" fill="#4C60A5"/>
<path d="M137.579 115.779C139.816 120.399 142.65 124.706 146.006 128.589L156.713 125.309L154.217 115.138L137.579 115.779Z" fill="#4C60A5"/>
<path d="M152.079 102.711L161.654 94.471V83.3259L149.824 93.4389L152.079 102.711Z" fill="#4C60A5"/>
<path d="M149.608 92.5316L161.621 82.2272V74.0952C161.182 71.7249 160.596 69.3842 159.866 67.0869L146.722 80.779L149.608 92.5316Z" fill="#4C60A5"/>
<path d="M155.023 114.863L157.502 125.068L161.654 123.794V109.02L155.023 114.863Z" fill="#4C60A5"/>
<path d="M154.607 56.8324C151.869 53.3007 147.854 50.987 143.427 50.39C142.087 50.1851 140.724 50.1851 139.384 50.39L143.435 67.0369L154.607 56.8324Z" fill="#4C60A5"/>
<path d="M142.853 68.2105L128.486 64.2651C127.666 68.6957 127.386 73.2095 127.654 77.7075L145.748 80.1629L142.853 68.2105Z" fill="#4C60A5"/>
<path d="M154.725 115.121L154.242 115.146L156.713 125.309L157.503 125.068L155.024 114.863L154.725 115.121Z" fill="#637ABE"/>
<path d="M143.086 67.4114L143.435 67.0951L139.384 50.4482L138.552 50.6147L142.611 67.3198L143.086 67.4114Z" fill="#637ABE"/>
<path d="M154.807 113.948L152.295 103.627L151.995 103.885L151.513 103.901L154.042 114.314L154.399 114.306L154.807 113.948Z" fill="#637ABE"/>
<path d="M152.079 102.711L149.824 93.4387L149.508 93.7134L149.034 93.6884L151.314 103.077L151.671 103.061L152.079 102.711Z" fill="#637ABE"/>
<path d="M146.522 79.8217L143.66 68.019L143.302 68.3437L142.845 68.2188L145.748 80.1629L146.139 80.2129L146.522 79.8217Z" fill="#637ABE"/>
<path d="M149.608 92.5315L146.755 80.7788L146.447 81.0951L145.956 81.0285L148.826 92.8395L149.217 92.8644L149.608 92.5315Z" fill="#637ABE"/>
<path d="M170.98 85.8562L169.449 94.7373L169.84 94.9537L170.264 94.8954L171.795 86.031L171.338 86.1226L170.98 85.8562Z" fill="#637ABE"/>
<path d="M169.299 95.603L167.793 104.343L168.176 104.534L168.608 104.476L170.114 95.7612L169.681 95.8194L169.299 95.603Z" fill="#637ABE"/>
<path d="M173.558 73.5124L173.991 73.3377L175.654 63.541C175.405 63.4494 175.147 63.3579 174.889 63.283L173.184 73.1462L173.558 73.5124Z" fill="#637ABE"/>
<path d="M168.034 105.391L167.643 105.2L164.582 122.896L165.472 122.621L168.459 105.333L168.034 105.391Z" fill="#637ABE"/>
<path d="M173.009 74.145L171.146 84.9405L171.537 85.2318L171.952 85.1486L173.824 74.3032L173.35 74.4946L173.009 74.145Z" fill="#637ABE"/>
<path d="M142.629 67.2865L128.661 63.4495C128.594 63.7158 128.545 63.9905 128.486 64.2818L142.853 68.2271L142.629 67.2865Z" fill="#637ABE"/>
<path d="M143.66 68.0192L155.124 57.4817C154.957 57.2653 154.783 57.0406 154.608 56.8325L143.436 67.0953L143.66 68.0192Z" fill="#637ABE"/>
<path d="M143.66 68.0191L143.435 67.0952L143.086 67.4198L142.62 67.295L142.845 68.2189L143.302 68.3437L143.66 68.0191Z" fill="#637ABE"/>
<path d="M145.748 80.1629L127.654 77.7241C127.654 78.0071 127.654 78.2901 127.696 78.5565L145.956 81.0535L145.748 80.1629Z" fill="#637ABE"/>
<path d="M146.754 80.7789L159.898 67.0869C159.799 66.7873 159.699 66.4959 159.591 66.1963L146.521 79.8217L146.754 80.7789Z" fill="#637ABE"/>
<path d="M146.755 80.779L146.522 79.8218L146.139 80.213L145.748 80.163L145.956 81.0287L146.447 81.0953L146.755 80.779Z" fill="#637ABE"/>
<path d="M149.825 93.4389L161.654 83.326V82.2273L149.608 92.5317L149.825 93.4389Z" fill="#637ABE"/>
<path d="M148.827 92.8395L129.427 91.6409L129.601 92.4732L149.035 93.6801L148.827 92.8395Z" fill="#637ABE"/>
<path d="M149.824 93.4387L149.608 92.5315L149.217 92.8644L148.826 92.8395L149.034 93.6884L149.508 93.7134L149.824 93.4387Z" fill="#637ABE"/>
<path d="M161.887 102.353L162.253 101.604L162.486 101.721V91.7908L161.871 91.4412L162.278 90.7171L162.486 90.8336V79.4804L161.821 78.9811L162.32 78.3152L162.486 78.44V75.635C162.386 76.2232 162.295 76.8225 162.212 77.4329C162.054 76.3175 161.862 75.2022 161.654 74.1035V82.2355L161.804 82.1106L162.345 82.7432L161.654 83.3259V94.4709L161.804 94.3461L162.345 94.9787L161.654 95.5696V107.913L161.796 107.788L162.345 108.413L161.654 109.029V123.803L162.486 123.545V102.694L161.887 102.353Z" fill="#637ABE"/>
<path d="M162.345 82.7349L161.804 82.1023L161.654 82.2271V83.3259L162.345 82.7349Z" fill="#637ABE"/>
<path d="M173.991 73.3378L173.824 74.3033L181.594 71.1654C181.528 70.8907 181.453 70.616 181.378 70.333L173.991 73.3378Z" fill="#637ABE"/>
<path d="M173.184 73.1379L166.063 65.9631C165.896 66.1795 165.738 66.4126 165.58 66.6457L173.009 74.1367L173.184 73.1379Z" fill="#637ABE"/>
<path d="M173.184 73.1379L173.01 74.1451L173.351 74.4947L173.825 74.3032L173.991 73.3377L173.559 73.5208L173.184 73.1379Z" fill="#637ABE"/>
<path d="M171.803 86.0477L181.827 83.9418C181.827 83.6505 181.894 83.3592 181.927 83.0679L171.944 85.1654L171.803 86.0477Z" fill="#637ABE"/>
<path d="M171.145 84.9405L162.485 78.4399V79.4804L170.979 85.8561L171.145 84.9405Z" fill="#637ABE"/>
<path d="M171.146 84.9407L170.979 85.8562L171.337 86.1226L171.795 86.031L171.953 85.1488L171.537 85.232L171.146 84.9407Z" fill="#637ABE"/>
<path d="M162.319 78.3152L161.82 78.9811L162.486 79.4805V78.44L162.319 78.3152Z" fill="#637ABE"/>
<path d="M169.448 94.7372L162.485 90.8335V91.7907L169.299 95.6028L169.448 94.7372Z" fill="#637ABE"/>
<path d="M170.123 95.7528L179.823 94.4294C179.898 94.1381 179.964 93.8467 180.031 93.5554L170.264 94.8955L170.123 95.7528Z" fill="#637ABE"/>
<path d="M169.449 94.7373L169.299 95.6029L169.682 95.8194L170.114 95.7611L170.264 94.8955L169.84 94.9537L169.449 94.7373Z" fill="#637ABE"/>
<path d="M162.269 90.717L161.87 91.4412L162.486 91.7908V90.8336L162.269 90.717Z" fill="#637ABE"/>
<path d="M168.467 105.333L177.06 104.226L177.335 103.394L168.608 104.517L168.467 105.333Z" fill="#637ABE"/>
<path d="M162.485 101.729V102.653L167.643 105.2L167.793 104.343L162.485 101.729Z" fill="#637ABE"/>
<path d="M167.793 104.343L167.644 105.2L168.035 105.391L168.459 105.333L168.609 104.476L168.176 104.534L167.793 104.343Z" fill="#637ABE"/>
<path d="M162.253 101.613L161.887 102.353L162.486 102.653V101.729L162.253 101.613Z" fill="#637ABE"/>
<path d="M151.313 103.077L132.679 103.835L132.953 104.667L151.513 103.918L151.313 103.077Z" fill="#637ABE"/>
<path d="M152.295 103.627L161.654 95.5613V94.4709L152.079 102.711L152.295 103.627Z" fill="#637ABE"/>
<path d="M152.295 103.627L152.079 102.711L151.671 103.061L151.313 103.077L151.513 103.901L151.996 103.885L152.295 103.627Z" fill="#637ABE"/>
<path d="M162.345 94.9702L161.796 94.3376L161.654 94.4708V95.5612L162.345 94.9702Z" fill="#637ABE"/>
<path d="M155.024 114.863L161.654 109.02V107.913L154.808 113.948L155.024 114.863Z" fill="#637ABE"/>
<path d="M154.042 114.347L137.18 114.996L137.579 115.829L154.217 115.188L154.042 114.347Z" fill="#637ABE"/>
<path d="M154.4 114.306L154.042 114.314L154.242 115.146L154.724 115.121L155.024 114.863L154.807 113.948L154.4 114.306Z" fill="#637ABE"/>
<path d="M162.345 108.413L161.796 107.788L161.654 107.913V109.02L162.345 108.413Z" fill="#637ABE"/>
<path d="M218.306 144.644C218.306 144.644 212.482 105.042 176.977 98.9572C141.472 92.8728 145.814 42.7658 97.3314 44.7218C48.8485 46.6778 58.8562 93.3639 39.5729 103.818C20.2896 114.272 11.3301 144.603 11.3301 144.603L218.306 144.644Z" fill="#82A7F7"/>
<path d="M212.25 144.644C212.25 144.644 212.25 112.533 250.284 101.229C288.318 89.9263 279.267 31.0214 326.819 40.0773C374.37 49.1331 351.268 109.395 369.836 122.537C388.404 135.68 384.319 144.644 384.319 144.644H212.25Z" fill="#82A7F7"/>
<path d="M25.9303 144.819H27.3612L1.29788 51.3472C-6.82973 54.6349 25.9303 144.819 25.9303 144.819Z" fill="#A0ABE9"/>
<path d="M35.3718 144.986L60.2122 73.9122C53.7734 73.5959 45.4544 101.38 41.5695 115.796C40.2717 120.998 39.4065 124.227 39.4065 124.227C39.4065 124.227 40.2384 120.831 41.5695 115.796C46.7938 94.9871 59.1058 42.4164 51.7352 37.439L32.3438 144.936L35.3718 144.986Z" fill="#A0ABE9"/>
<path d="M29.2663 144.878L27.0534 17.9038C18.0856 23.9799 25.9304 128.156 25.9304 128.156C25.9304 128.156 10.6651 53.3117 2.14648 51.3057L28.2347 144.861L29.2663 144.878Z" fill="#A0ABE9"/>
<path d="M41.5702 115.796C40.2142 120.831 39.4072 124.227 39.4072 124.227C39.4072 124.227 40.2724 121.006 41.5702 115.796Z" fill="#A0ABE9"/>
<path d="M31.5044 144.919L50.979 37.1143C40.805 35.3497 31.5044 128.156 31.5044 128.156C31.5044 128.156 38.2427 17.6208 27.9355 17.6208L30.0985 144.894L31.5044 144.919Z" fill="#A0ABE9"/>
<path d="M39.008 145.052C39.008 145.052 69.9295 78.9061 61.2113 74.1867C61.1518 74.1581 61.0907 74.1331 61.0283 74.1118L36.2461 145.002L39.008 145.052Z" fill="#A0ABE9"/>
<path d="M28.2347 144.861L2.14645 51.3057C1.87513 51.2243 1.58588 51.2243 1.31456 51.3057H1.26465L27.3279 144.778L28.2347 144.861Z" fill="#697DD1"/>
<path d="M30.0984 144.894L27.8856 17.6208C27.5871 17.6346 27.2987 17.7328 27.0537 17.9039L29.2665 144.878L30.0984 144.894Z" fill="#697DD1"/>
<path d="M32.3441 144.936L51.7356 37.4389C51.599 37.3407 51.451 37.2596 51.2947 37.1975C51.183 37.1619 51.0691 37.1341 50.9536 37.1143L31.5039 144.919L32.3441 144.936Z" fill="#697DD1"/>
<path d="M36.2456 145.002L61.0277 74.1119C60.7647 73.9957 60.4829 73.928 60.1958 73.9121L35.3555 144.986L36.2456 145.002Z" fill="#697DD1"/>
<path d="M364.112 144.919L383.562 37.1143C373.388 35.3497 364.087 128.156 364.087 128.156C364.087 128.156 370.826 17.6208 360.519 17.6208L362.74 144.894L364.112 144.919Z" fill="#A0ABE9"/>
<path d="M367.98 144.986L392.821 73.9122C386.39 73.5959 378.063 101.38 374.178 115.796C372.88 120.998 372.015 124.227 372.015 124.227C372.015 124.227 372.847 120.831 374.178 115.796C379.402 94.9871 391.714 42.4164 384.344 37.439L364.952 144.936L367.98 144.986Z" fill="#A0ABE9"/>
<path d="M374.179 115.796C372.823 120.831 372.016 124.227 372.016 124.227C372.016 124.227 372.922 121.006 374.179 115.796Z" fill="#A0ABE9"/>
<path d="M371.615 145.052C371.615 145.052 402.537 78.9061 393.819 74.1867C393.759 74.1581 393.698 74.1331 393.636 74.1118L368.854 145.002L371.615 145.052Z" fill="#A0ABE9"/>
<path d="M358.539 144.819H359.97L333.906 51.3723C325.779 54.6351 358.539 144.819 358.539 144.819Z" fill="#A0ABE9"/>
<path d="M361.875 144.878L359.662 17.9038C350.694 23.9799 358.539 128.156 358.539 128.156C358.539 128.156 343.273 53.3117 334.755 51.3057L360.835 144.861L361.875 144.878Z" fill="#A0ABE9"/>
<path d="M360.835 144.861L334.755 51.3057C334.484 51.2243 334.194 51.2243 333.923 51.3057H333.873L359.936 144.778L360.835 144.861Z" fill="#697DD1"/>
<path d="M362.714 144.894L360.493 17.6208C360.195 17.6346 359.906 17.7328 359.661 17.9039L361.874 144.878L362.714 144.894Z" fill="#697DD1"/>
<path d="M364.953 144.936L384.344 37.4389C384.207 37.3407 384.059 37.2596 383.903 37.1975C383.792 37.161 383.678 37.1332 383.562 37.1143L364.112 144.919L364.953 144.936Z" fill="#697DD1"/>
<path d="M368.854 145.002L393.636 74.1119C393.373 73.9957 393.091 73.928 392.804 73.9121L367.964 144.986L368.854 145.002Z" fill="#697DD1"/>
<path d="M56.627 59.4126L76.7671 144.128H78.3644L83.2975 119.266C83.5055 109.22 81.85 80.1546 56.627 59.4126Z" fill="#617FC8"/>
<path d="M56.2857 144.312L65.1786 144.228L28.3174 102.611C37.5514 135.489 56.2857 144.312 56.2857 144.312Z" fill="#617FC8"/>
<path d="M28.5176 101.604L66.2856 144.22H68.6316L56.985 120.298C52.576 113.515 43.292 102.694 28.5176 101.604Z" fill="#617FC8"/>
<path d="M57.135 118.759L69.5552 144.195L75.8693 144.137L55.9038 60.0703C46.6948 83.1678 53.0088 107.306 57.135 118.759Z" fill="#617FC8"/>
<path d="M93.0809 143.987C93.0809 143.987 121.448 133.008 121.948 89.7432L84.4375 144.062L93.0809 143.987Z" fill="#617FC8"/>
<path d="M83.9636 119.949L79.1719 144.087L83.4229 144.045L121.69 88.7195C94.6368 100.031 86.3594 114.014 83.9636 119.949Z" fill="#617FC8"/>
<path d="M28.0098 101.562C28.1096 101.929 28.2094 102.27 28.3176 102.628L65.1788 144.245H66.2852L28.5172 101.604L28.0098 101.562Z" fill="#7AA2F7"/>
<path d="M56.286 59.1379C56.1612 59.4376 56.0447 59.7455 55.9199 60.0535L75.8854 144.12H76.7173L56.627 59.4126L56.286 59.1379Z" fill="#7AA2F7"/>
<path d="M121.69 88.7193L83.4229 144.07H84.4378L121.948 89.7515C121.948 89.3686 121.948 88.9857 121.948 88.5945L121.69 88.7193Z" fill="#7AA2F7"/>
<path d="M59.6553 124.985C59.8383 125.376 59.9381 125.576 59.9381 125.576L59.6553 124.985Z" fill="#637ABE"/>
<path d="M59.6548 124.985L59.9377 125.576C59.9377 125.576 59.8378 125.376 59.6548 124.985C58.8493 123.364 57.9464 121.794 56.9512 120.282L68.5977 144.204H69.5211L57.1342 118.759C58.2489 121.838 59.2056 124.011 59.6548 124.985Z" fill="#637ABE"/>
<path d="M83.0401 122.837C83.0401 122.837 83.1982 121.539 83.2564 119.258L78.3232 144.12H79.1551L83.9469 119.982C83.5576 120.904 83.254 121.86 83.0401 122.837Z" fill="#637ABE"/>
<path d="M326.985 125.942L331.411 145.435H333.599L346.46 57.9644C323.915 80.6873 325.013 111.775 326.985 125.942Z" fill="#4C60A5"/>
<path d="M296.596 85.9146L329.522 145.435H330.554L325.679 123.928C321.81 112.766 313.275 94.7624 296.596 85.9146Z" fill="#4C60A5"/>
<path d="M323.649 145.435H328.574L295.905 86.3389C296.238 132.109 323.649 145.435 323.649 145.435Z" fill="#4C60A5"/>
<path d="M349.412 145.435C349.412 145.435 371.873 134.973 382.131 100.123L345.735 145.435H349.412Z" fill="#4C60A5"/>
<path d="M349.928 127.19L343.115 145.435H344.638L381.915 99.0156C364.229 104.559 354.479 118.459 349.928 127.19Z" fill="#4C60A5"/>
<path d="M347.133 58.9382L334.438 145.435H342.225L349.047 127.124C352.807 113.698 358.522 84.5577 347.133 58.9382Z" fill="#4C60A5"/>
<path d="M295.896 85.5398C295.896 85.8311 295.896 86.1058 295.896 86.3721L328.565 145.468H329.513L296.587 85.9476L295.896 85.5398Z" fill="#637ABE"/>
<path d="M346.643 57.748L346.46 57.9312L333.599 145.435H334.431L347.134 58.9383C346.992 58.5804 346.817 58.1642 346.643 57.748Z" fill="#637ABE"/>
<path d="M381.948 99.0156L344.638 145.435H345.703L382.098 100.123C382.223 99.6898 382.356 99.2903 382.481 98.8325L381.948 99.0156Z" fill="#637ABE"/>
<path d="M327.933 131.485C328.258 132.792 328.399 133.541 328.399 133.541C328.399 133.541 328.208 132.809 327.933 131.485C327.509 129.82 326.785 127.14 325.679 123.927L330.554 145.435H331.385L326.96 125.942C327.309 128.297 327.659 130.162 327.933 131.485Z" fill="#637ABE"/>
<path d="M327.933 131.485C328.207 132.809 328.398 133.541 328.398 133.541C328.398 133.541 328.257 132.792 327.933 131.485Z" fill="#637ABE"/>
<path d="M347.133 133.258C346.8 134.215 346.609 134.731 346.609 134.731C346.609 134.731 346.775 134.19 347.133 133.258C347.574 131.976 348.256 129.887 349.013 127.165L342.191 145.477H343.082L349.895 127.232C348.863 129.188 347.941 131.2 347.133 133.258Z" fill="#637ABE"/>
<path d="M347.133 133.258C346.776 134.19 346.609 134.731 346.609 134.731C346.609 134.731 346.834 134.215 347.133 133.258Z" fill="#637ABE"/>
<path d="M200.154 121.006C59.5136 121.006 0.307617 144.237 0.307617 144.237C0.307617 144.237 59.5136 154 200.154 154C340.794 154 400.008 144.228 400.008 144.228C400.008 144.228 340.802 121.006 200.154 121.006Z" fill="#ABC8F1"/>
<path d="M275.349 64.7397L270.499 140.766H275.399L288.16 77.1L295.656 140.766H300.256L300.514 64.7397H275.349Z" fill="#FB6F6E"/>
<path d="M246.998 42.2165L246.932 42.7575L243.696 69.5257H306.163L300.165 43.0988L290.257 10.6707L267.272 14.8158L266.797 14.899L266.323 14.7991L235.942 8.40674L246.832 41.6921L246.998 42.2165Z" fill="#E0EEFB"/>
<path d="M309.266 71.9893L302.552 42.4578L291.979 7.84903L266.839 12.377L232.266 5.10229L244.486 42.4578L240.909 71.9893H309.266ZM266.332 14.7991L266.798 14.899L267.272 14.8157L290.257 10.654L300.165 43.1154L306.163 69.5339H243.704L246.932 42.7658L246.998 42.2248L246.832 41.7004L235.943 8.40669L266.332 14.7991Z" fill="white"/>
<path d="M288.111 29.6897C287.078 29.6897 286.088 29.2793 285.358 28.5488C284.628 27.8182 284.217 26.8274 284.217 25.7943V19.3021H292.004V25.7943C292.004 26.8274 291.594 27.8182 290.864 28.5488C290.133 29.2793 289.143 29.6897 288.111 29.6897Z" fill="#F3A9B8"/>
<g style="mix-blend-mode:multiply" opacity="0.7">
<path d="M301.537 39.1367L271.688 40.9179L244.477 42.4661L240.908 71.9976H309.257L301.537 39.1367Z" fill="#E0EEFB"/>
</g>
<path d="M264.858 19.4602C264.135 19.4602 263.344 20.1261 262.596 21.05H267.13C266.381 20.1594 265.607 19.4602 264.858 19.4602Z" fill="white"/>
<path d="M270.216 26.3936C269.386 24.5152 268.351 22.7343 267.13 21.0833H262.596C261.375 22.7343 260.34 24.5152 259.51 26.3936H270.216Z" fill="#A0ABE9"/>
<path d="M259.226 21.7659C258.913 21.8309 258.616 21.9598 258.354 22.1445C258.092 22.3292 257.871 22.5658 257.704 22.8396H260.741C260.574 22.567 260.354 22.3312 260.094 22.1466C259.834 21.9619 259.539 21.8324 259.226 21.7659Z" fill="white"/>
<path d="M262.813 26.3937C262.253 25.1373 261.558 23.9456 260.741 22.8396H257.705C256.889 23.9449 256.197 25.1368 255.642 26.3937H262.813Z" fill="#A0ABE9"/>
<path d="M270.499 21.7659C270.187 21.8324 269.892 21.9619 269.632 22.1466C269.371 22.3312 269.151 22.567 268.985 22.8396H272.022C271.514 22.2153 270.99 21.7659 270.499 21.7659Z" fill="white"/>
<path d="M274.085 26.3937C273.53 25.1368 272.838 23.9449 272.022 22.8396H268.985C268.165 23.9433 267.47 25.1354 266.914 26.3937H274.085Z" fill="#A0ABE9"/>
<path d="M271.539 30.0726C269.395 31.2095 267.666 32.9953 266.597 35.1749C253.703 27.1511 243.08 28.7492 242.639 28.8241L243.146 30.2807C243.254 30.2807 253.578 28.4495 266.098 36.2736C265.739 37.0843 265.436 37.9186 265.191 38.7706C262.063 49.4745 246.191 50.8728 246.058 50.8812L245.875 52.1297C246.44 52.0797 257.363 51.1309 263.278 44.6386C265.391 46.3033 274.043 54.0774 268.669 69.5007H270C275.507 53.6862 266.481 45.5292 264.077 43.698C265.13 42.333 265.92 40.7834 266.406 39.1285C267.562 35.1749 269.451 32.5696 272.179 31.163C276.039 29.182 281.638 29.5732 289.782 32.4281L290.19 31.2628C281.63 28.2997 275.723 27.9168 271.539 30.0726Z" fill="#FB6F6E"/>
<path d="M244.919 59.471C244.919 59.471 250.002 54.3854 255.442 57.9062C260.883 61.427 262.222 58.9716 264.651 61.402C267.896 64.6482 264.859 69.5174 264.859 69.5174H243.704L244.919 59.471Z" fill="#82A7F7"/>
<g style="mix-blend-mode:multiply" opacity="0.5">
<path d="M266.831 12.3853L272.022 42.8657L275.349 71.9977H240.909L244.478 42.4661L232.266 5.10229L266.831 12.3853Z" fill="#E0EEFB"/>
</g>
<path d="M290.797 34.4424L298.575 50.415C298.836 50.9483 299.212 51.4164 299.677 51.7851C300.142 52.1538 300.684 52.4137 301.262 52.5458C301.865 52.6841 302.492 52.678 303.093 52.5282C303.693 52.3784 304.25 52.089 304.718 51.6835C305.185 51.2781 305.551 50.768 305.784 50.1947C306.018 49.6215 306.113 49.0011 306.062 48.3841C305.155 40.2771 298.084 29.3235 298.084 29.3235L290.797 34.4424Z" fill="#F3A9B8"/>
<path d="M274.758 63.9827C274.747 63.8429 274.728 63.7038 274.7 63.5662" stroke="#2E3154" stroke-width="0.5" stroke-miterlimit="10"/>
<path d="M274.533 62.7422C273.86 60.3617 271.414 55.2511 262.812 54.5186C255.508 53.886 251.923 48.4342 257.704 39.9193C263.27 31.7291 265.283 33.3272 265.424 26.502" stroke="#2E3154" stroke-width="0.5" stroke-miterlimit="10" stroke-dasharray="1 1"/>
<path d="M265.433 26.1195V25.6946" stroke="#2E3154" stroke-width="0.5" stroke-miterlimit="10"/>
<path d="M263.536 26.8599C263.535 27.2158 263.638 27.5642 263.835 27.8609C264.031 28.1577 264.311 28.3894 264.64 28.5268C264.968 28.6641 265.329 28.7009 265.678 28.6325C266.028 28.5641 266.349 28.3935 266.601 28.1424C266.853 27.8913 267.025 27.571 267.095 27.222C267.165 26.873 267.13 26.5111 266.994 26.1821C266.858 25.8531 266.628 25.5718 266.332 25.3739C266.037 25.176 265.689 25.0703 265.333 25.0703C264.858 25.0703 264.402 25.2586 264.065 25.5939C263.729 25.9293 263.538 26.3845 263.536 26.8599Z" fill="#FB6F6E"/>
<path d="M285.049 4.13685C285.049 4.13685 279.268 5.23555 279.268 14.5744C279.268 23.9133 284.367 23.647 287.994 21.3081C291.621 18.9692 293.327 13.2011 290.831 7.8491C288.335 2.49714 285.049 4.13685 285.049 4.13685Z" fill="#F3A9B8"/>
<path d="M287.569 24.4958C287.569 24.4958 278.793 23.9215 277.229 33.7348C275.956 41.7419 278.668 44.9465 278.435 51.7134C278.327 54.9429 275.349 60.8692 275.349 64.7396H300.547C300.547 64.7396 299.84 60.7027 297.793 51.7134C297.261 49.3745 298.484 46.5779 299.457 43.4732C303.874 28.6825 294.507 24.4958 287.569 24.4958Z" fill="#A0ABE9"/>
<path d="M284.741 13.2926C284.741 13.2926 278.751 13.8502 278.086 6.78365C277.42 -0.282938 286.654 -2.44703 292.345 3.24619C293.917 -2.11409 301.986 -0.674142 300.497 6.65047C303.825 11.4947 300.272 12.8015 298.401 12.8015C298.401 20.3924 293.526 23.1392 289.341 21.8324C285.157 20.5256 284.741 13.2926 284.741 13.2926Z" fill="#FB6F6E"/>
<path d="M277.57 31.5624L268.851 46.2699L249.718 43.4816L249.202 46.3032C249.202 46.3032 260.241 53.3032 270.831 52.1296C276.854 51.4721 282.37 40.7598 284.799 35.2996C285.192 34.4294 285.268 33.4486 285.012 32.5284C284.757 31.6082 284.187 30.8068 283.401 30.264C282.939 29.948 282.416 29.7304 281.867 29.6245C281.317 29.5187 280.751 29.5268 280.204 29.6486C279.658 29.7703 279.142 30.0029 278.689 30.3321C278.235 30.6613 277.855 31.0801 277.57 31.5624Z" fill="#F3A9B8"/>
<path d="M284.742 13.2927C285.011 13.2558 285.285 13.2798 285.544 13.3629C285.804 13.446 286.041 13.5861 286.239 13.7729C286.436 13.9597 286.59 14.1885 286.688 14.4424C286.786 14.6963 286.826 14.969 286.805 15.2404C286.805 17.3961 284.143 17.6208 284.143 17.6208L284.742 13.2927Z" fill="#F3A9B8"/>
<path d="M275.848 61.4019C275.848 61.4019 271.114 70.8906 271.114 86.4138C277.703 89.5767 286.837 88.7527 286.837 88.7527L288.118 80.5125L288.825 88.8359C288.825 88.8359 297.061 90.8002 304.199 86.6801C304.648 70.8656 299.865 61.3936 299.865 61.3936C299.865 61.3936 290.88 64.5398 275.848 61.4019Z" fill="#2E3154"/>
<path d="M269.618 141.632V131.061H279.035L277.154 144.228H263.195C263.195 144.228 264.601 141.632 269.618 141.632Z" fill="#2E3154"/>
<path d="M302.843 141.632V131.061H293.426L295.281 144.228H309.265C309.265 144.228 307.859 141.632 302.843 141.632Z" fill="#2E3154"/>
<path d="M289.342 27.7837C289.342 27.7837 281.854 40.968 281.854 55.5423C281.854 70.1166 312.135 69.9002 312.135 55.5423C312.135 41.1844 306.37 27.7837 306.37 27.7837H289.342Z" fill="#5A75C2"/>
<path d="M286.713 33.6101H306.528C307.894 33.6035 309.201 33.0574 310.165 32.0908C311.13 31.1242 311.673 29.8154 311.678 28.4496C311.673 27.0845 311.13 25.7765 310.165 24.8113C309.2 23.846 307.893 23.3018 306.528 23.2974H286.962C285.796 23.2996 284.678 23.7642 283.853 24.5894C283.028 25.4147 282.564 26.5334 282.562 27.7004V29.4484C282.562 30.5507 282.999 31.608 283.777 32.3882C284.555 33.1685 285.611 33.6079 286.713 33.6101Z" fill="#4C60A5"/>
<path d="M282.611 47.1189C282.611 47.1189 275.956 61.1272 285.714 61.1272C295.472 61.1272 291.097 47.1189 291.097 47.1189H282.611Z" fill="#4C60A5"/>
<path d="M297.045 47.1189C297.045 47.1189 291.039 61.1272 301.754 61.1272C312.468 61.1272 314.415 60.6445 314.415 54.2604C314.415 47.8763 311.678 47.1189 311.678 47.1189H297.045Z" fill="#4C60A5"/>
<path d="M282.245 28.4412C282.245 31.2379 283.909 33.4935 286.064 33.4935C288.218 33.4935 289.874 31.2379 289.874 28.4412C289.874 25.6446 288.21 23.3972 286.064 23.3972C283.917 23.3972 282.245 25.6529 282.245 28.4412Z" fill="#354B87"/>
<path d="M292.078 23.2891C292.078 23.2891 296.745 28.8824 292.078 33.6018H294.457C294.457 33.6018 299.39 28.3996 294.333 23.2891" fill="#5A75C2"/>
<path d="M303.393 23.2891C303.393 23.2891 308.06 28.8824 303.393 33.6018H305.763C305.763 33.6018 310.697 28.3996 305.639 23.2891" fill="#5A75C2"/>
<path d="M250.634 43.8811C250.634 43.8811 247.88 40.3853 247.223 40.6183C246.566 40.8514 247.88 42.5743 247.88 42.5743C247.88 42.5743 244.045 42 243.504 42C242.963 42 243.354 43.0321 244.27 43.2652C243.438 44.0975 244.461 46.0618 247.264 46.2949C250.068 46.5279 250.867 46.0618 250.867 46.0618L250.634 43.8811Z" fill="#F3A9B8"/>
<path d="M292.461 4.04517C292.461 4.04517 290.398 7.37454 294.341 9.19737C293.376 11.2782 295.623 13.5256 298.06 12.6766" stroke="#2E3154" stroke-width="0.5" stroke-miterlimit="10"/>
</g>
<defs>
<clipPath id="clip0">
<rect width="400" height="154" fill="white"/>
</clipPath>
</defs>
</svg>
