<svg width="64" height="64" viewBox="0 0 64 64" fill="none" xmlns="http://www.w3.org/2000/svg">
<circle cx="32.1203" cy="32.1203" r="30.7584" fill="#462128"/>
<path d="M27.0738 32.5208C30.784 32.5208 33.8022 29.5026 33.8022 25.7924C33.8022 22.0821 30.784 19.064 27.0738 19.064C23.3635 19.064 20.3454 22.0821 20.3454 25.7924C20.3454 29.5026 23.3635 32.5208 27.0738 32.5208ZM27.0738 22.9088C28.6694 22.9088 29.9574 24.1968 29.9574 25.7924C29.9574 27.388 28.6694 28.676 27.0738 28.676C25.4782 28.676 24.1902 27.388 24.1902 25.7924C24.1902 24.1968 25.4782 22.9088 27.0738 22.9088ZM27.1699 42.1328H18.942C20.8452 41.1716 24.1325 40.2104 27.0738 40.2104C27.2852 40.2104 27.5159 40.2296 27.7274 40.2296C28.381 38.8263 29.5152 37.6728 30.8801 36.7501C29.4768 36.5002 28.1503 36.3656 27.0738 36.3656C22.5753 36.3656 13.6169 38.6148 13.6169 43.094V45.9776H27.0738V43.094C27.0738 42.7672 27.1122 42.4404 27.1699 42.1328ZM41.4918 37.3268C37.9546 37.3268 30.9186 39.2684 30.9186 43.094V45.9776H52.065V43.094C52.065 39.2684 45.029 37.3268 41.4918 37.3268ZM43.8179 33.828C45.2789 33.0014 46.2978 31.4442 46.2978 29.6372C46.2978 26.9843 44.1447 24.8312 41.4918 24.8312C38.8389 24.8312 36.6858 26.9843 36.6858 29.6372C36.6858 31.4442 37.7046 33.0014 39.1657 33.828C39.8577 34.2125 40.6459 34.4432 41.4918 34.4432C42.3376 34.4432 43.1258 34.2125 43.8179 33.828Z" fill="#FF395D"/>
</svg>
