<svg width="145" height="145" viewBox="0 0 145 145" fill="none" xmlns="http://www.w3.org/2000/svg">
<path d="M99.7218 36.3192C100.402 35.9001 101.285 36.07 101.738 36.727C104.117 40.1708 110.45 51.6461 108.048 73.5094C106.485 87.7036 98.4417 108.196 95.7117 114.834C95.6204 115.058 95.4762 115.257 95.2914 115.413C95.1065 115.569 94.8866 115.678 94.6505 115.73C94.4143 115.783 94.169 115.777 93.9355 115.714C93.7021 115.65 93.4875 115.531 93.3101 115.367C90.5687 112.863 83.8738 108.638 71.6847 111.47C67.8218 112.365 55.7687 124.441 46.0831 113.566C40.1019 106.848 44.4632 102.895 44.5085 93.2317C44.5652 80.7934 32.0476 76.9758 27.9581 74.9368C26.916 74.4157 26.8367 72.977 27.8109 72.3426C32.5574 69.2614 39.2183 67.8114 47.5898 61.1504C58.2156 52.711 58.3062 44.804 60.4812 42.0626C61.58 40.6805 70.2347 36.795 70.2347 36.795C70.2347 36.795 76.2839 38.4036 76.5785 38.5168L87.3742 43.286C87.8046 43.4446 88.2917 43.3993 88.6882 43.1501L99.7218 36.3192Z" fill="url(#paint0_linear)"/>
<path d="M102.451 83.4766C108.579 64.502 104.138 48.9145 104.138 48.9145C104.138 48.9145 86.1494 55.2696 86.1041 56.0059C86.0701 56.7422 74.4135 84.4508 74.4135 84.4508C74.4135 84.4508 65.9287 107.402 55.167 118.073C62.8814 117.234 69.1232 112.057 71.6834 111.468C79.715 109.599 85.3451 110.8 89.0494 112.556C91.0771 109.327 98.1459 96.8211 102.451 83.4766Z" fill="url(#paint1_radial)"/>
<path d="M76.9958 49.4136L71.2525 46.8082C71.2525 46.8082 62.1447 67.5953 57.5341 74.766C52.9122 81.9367 44.5068 93.2308 44.5068 93.2308C44.5181 102.894 40.0888 106.847 46.0814 113.565C46.4779 114.018 46.897 114.414 47.3048 114.788C51.1451 110.178 57.4888 101.172 62.2466 94.4203C75.104 76.1707 76.9958 49.4136 76.9958 49.4136Z" fill="url(#paint2_linear)"/>
<path d="M117.29 27.5933C116.146 24.4781 110.55 15.5402 110.55 15.5402L104.047 18.6667L106.63 29.8363L94.9962 39.5218C90.1861 38.4099 85.2101 38.2101 80.3263 38.9327C76.9958 38.6835 67.5255 38.7968 63.9458 47.5081L58.7575 59.8558L54.5548 61.3171C53.388 63.7527 57.2169 65.9503 59.6524 67.1058C62.088 68.2613 64.1837 67.3663 66.1774 64.7948C67.3669 63.2542 70.1309 58.9382 72.1474 55.7323C72.6005 59.1648 72.9177 63.3562 72.9403 68.4538L82.3767 72.9964L93.8634 73.4835C98.0548 64.0019 100.218 56.7859 101.317 51.6769C105.112 47.3948 114.945 36.2706 116.214 34.5034C117.777 32.3284 118.434 30.7085 117.29 27.5933Z" fill="url(#paint3_linear)"/>
<path d="M47.1347 43.7479C47.803 42.5245 49.8987 41.6862 51.4054 41.2217C52.323 40.9385 53.2972 41.4143 53.6597 42.2866L55.8913 47.6335C56.1632 48.2905 56.0386 49.0495 55.5628 49.5932L53.4671 51.9495C54.2374 52.9917 55.2003 53.8299 56.3105 54.4983C58.2023 55.6424 60.0941 55.5971 60.2866 55.7557C62.6882 57.6928 64.478 59.9585 63.0734 63.6741C61.68 67.367 56.8769 66.2342 56.8769 66.2342C56.8769 66.2342 51.9491 62.7678 48.7773 55.246C47.7464 52.8331 45.7413 46.2854 47.1347 43.7479Z" fill="url(#paint4_linear)"/>
<path d="M59.676 93.854C59.676 93.854 53.4002 99.688 52.9357 102.305C52.1654 106.643 55.8357 110.654 57.7389 109.102C61.8736 105.749 62.9951 101.591 65.0455 98.5778C67.0846 95.5645 62.3947 91.1013 59.676 93.854Z" fill="url(#paint5_linear)"/>
<path d="M80.8832 75.6389L80.6 76.4092C80.0902 74.5287 78.8894 72.8068 77.2582 71.9346C77.2582 71.9346 70.7105 69.7709 69.0679 72.8182C69.0679 72.8182 61.2175 85.1885 59.9715 88.6322C58.714 92.076 58.7593 94.8854 61.7047 96.7092C64.0836 98.1705 67.2781 97.4682 70.2008 94.149C71.5148 92.6537 74.5507 88.0885 76.8617 84.5428C77.2242 83.9764 78.0965 84.4182 77.8586 85.0525L64.1289 121.201L70.2574 125.097C70.2574 125.097 88.4957 95.9502 91.1804 90.3768C93.8652 84.8033 94.8168 76.6244 94.8168 76.6244L80.8832 75.6389Z" fill="url(#paint6_linear)"/>
<path opacity="0.4" d="M69.3721 72.3743L71.6377 68.6813C71.9549 67.9677 72.7705 67.6731 73.4275 68.047C80.9268 72.329 84.9143 73.4731 93.4443 72.9634C94.226 72.9181 94.8717 73.6204 94.815 74.47L94.5205 78.4462C94.5205 78.4462 91.3939 80.2134 81.8443 78.1856C75.0701 76.747 69.3721 72.3743 69.3721 72.3743Z" fill="#212121"/>
<path d="M94.1114 78.0963C84.5051 78.606 78.4899 76.8728 70.1071 72.4209C69.45 72.0697 69.1895 71.2654 69.5067 70.5857L70.8547 67.731C71.1946 67.0173 72.0668 66.7228 72.7692 67.0966C80.8008 71.3787 85.0715 72.5115 94.2247 72.0131C95.0629 71.9677 95.7653 72.6814 95.686 73.5197L95.4254 76.8049C95.3688 77.5072 94.8024 78.0623 94.1114 78.0963Z" fill="url(#paint7_linear)"/>
<path d="M85.6038 75.885L82.987 77.6182C82.4659 77.958 81.7749 77.8221 81.435 77.301L79.7018 74.6842C79.6202 74.5616 79.5636 74.4241 79.5354 74.2796C79.5071 74.1351 79.5078 73.9864 79.5372 73.8422C79.5667 73.6979 79.6245 73.5609 79.7072 73.439C79.7898 73.3172 79.8958 73.2129 80.019 73.1322L82.6358 71.399C82.7583 71.3174 82.8958 71.2608 83.0404 71.2326C83.1849 71.2043 83.3336 71.205 83.4778 71.2345C83.6221 71.2639 83.7591 71.3217 83.8809 71.4044C84.0028 71.4871 84.1071 71.593 84.1878 71.7162L85.921 74.333C86.2608 74.8428 86.1249 75.5338 85.6038 75.885Z" fill="#FDD835"/>
<path d="M79.8408 50.9976C81.2908 50.3632 83.9869 49.4796 87.8725 49.3324C88.1217 49.321 88.3596 49.321 88.5861 49.321C92.0865 49.321 94.2275 50.2726 95.3264 50.941L87.4646 59.3917L79.8408 50.9976Z" fill="#E53935"/>
<path d="M88.5957 50.5007C90.7367 50.5007 92.3113 50.8858 93.4102 51.305L87.4856 57.6714L81.8781 51.4976C83.3168 51.0444 85.3445 50.6026 87.916 50.512C88.1539 50.5007 88.3691 50.5007 88.5957 50.5007ZM88.5957 48.1558C88.3465 48.1558 88.0973 48.1558 87.8367 48.1671C81.3004 48.405 77.9473 50.6593 77.9473 50.6593L87.4629 61.1378L97.0691 50.8065C97.0578 50.8065 94.5883 48.1558 88.5957 48.1558Z" fill="#FDD835"/>
<path opacity="0.42" d="M77.9473 50.6595C77.9473 50.6595 81.3004 48.4053 87.8367 48.1674C94.3731 47.9295 97.0691 50.8068 97.0691 50.8068L87.4629 61.1381L77.9473 50.6595Z" fill="url(#paint8_linear)"/>
<path d="M65.5464 110.562C65.5464 110.562 63.7226 121.505 59.2253 128.664C57.0277 131.575 53.448 133.965 51.5902 138.961C50.7406 141.261 55.7023 143.447 59.5652 141.329C61.8875 140.049 65.3992 132.232 65.3992 132.232C68.5031 126.591 77.7468 117.596 77.7468 117.596C75.9683 109.338 65.5464 110.562 65.5464 110.562Z" fill="url(#paint9_linear)"/>
<path d="M60.4893 42.0503C60.4893 42.0503 66.935 33.9167 78.4443 36.2389C86.9971 37.9608 85.1959 43.455 85.1959 43.455C85.1959 43.455 80.8799 43.4889 76.9943 42.594C73.0635 41.6878 69.5631 39.8639 67.4787 40.0792L60.4893 42.0503Z" fill="#ED4132"/>
<path d="M85.1943 43.4677C85.1943 43.4677 85.7268 37.9056 89.4877 36.5575C93.2486 35.2095 101.677 33.9634 101.677 33.9634C101.677 33.9634 99.0373 39.129 96.9982 40.7603C92.6936 44.1927 85.1943 43.4677 85.1943 43.4677Z" fill="#ED4132"/>
<path opacity="0.4" d="M64.7148 45.9145C64.7148 45.9145 68.4078 42.5841 74.0266 43.9321C82.1148 45.8692 85.1961 43.4677 85.1961 43.4677C85.1961 43.4677 91.1434 45.6087 96.7734 42.9013C100.636 41.0435 101.69 33.9634 101.69 33.9634L100.364 35.4587C100.364 35.4587 95.4027 40.8622 90.4637 42.3235C86.85 43.3997 85.2074 43.4677 85.2074 43.4677C85.2074 43.4677 71.8855 38.9024 68.8496 40.1712C65.8137 41.4399 64.7148 45.9145 64.7148 45.9145Z" fill="#212121"/>
<path d="M104.988 28.2304C104.829 27.1769 102.824 11.0796 99.063 10.2414C99.063 10.2414 97.0693 10.264 95.0302 10.4453C93.4216 10.5019 92.3568 10.0714 92.0509 9.06324C91.6771 8.29292 92.0622 6.57105 92.7079 4.64527C93.3536 2.70816 94.5091 2.47027 95.4267 2.44761C97.2052 2.4023 100.241 4.20347 104.41 7.80581C112.43 14.7386 116.814 25.1945 116.814 25.1945C116.667 25.1945 111.501 32.2519 104.988 28.2304Z" fill="url(#paint10_linear)"/>
<path d="M84.927 35.4339L81.2793 35.5359L81.3812 38.3679C81.3812 41.9476 85.1875 43.4656 85.1875 43.4656C85.1875 43.4656 88.6652 41.5964 88.6652 38.3113L88.5633 35.3433L84.927 35.4339Z" fill="#EDC391"/>
<path d="M93.4233 24.388L91.0783 24.4334L78.3795 24.6939L76.0346 24.7392C74.1655 24.7732 72.6588 26.4384 72.7041 28.4435C72.7494 30.4486 74.3127 32.0459 76.1819 32.0005L78.5268 31.9552L91.2256 31.6947L93.5705 31.6494C95.4397 31.6154 96.9463 29.9502 96.901 27.9451C96.867 25.9513 95.3037 24.3541 93.4233 24.388Z" fill="#EDC391"/>
<path d="M84.4276 11.7246C78.8882 11.8379 73.8811 17.8645 74.0624 26.3832C74.2323 34.8567 79.6018 38.9461 84.994 38.8329C90.3749 38.7196 95.5745 34.4262 95.4046 25.9414C95.2233 17.4227 89.9671 11.6114 84.4276 11.7246Z" fill="#F9DDBD"/>
<path d="M79.7616 29.2728C80.6248 29.2555 81.31 28.5164 81.2921 27.6219C81.2742 26.7275 80.56 26.0163 79.6968 26.0336C78.8336 26.0509 78.1483 26.79 78.1662 27.6845C78.1841 28.579 78.8983 29.2901 79.7616 29.2728Z" fill="#312D2D"/>
<path d="M90.2176 29.0563C91.0808 29.039 91.7661 28.2999 91.7482 27.4055C91.7303 26.511 91.016 25.7999 90.1528 25.8171C89.2896 25.8344 88.6043 26.5735 88.6222 27.468C88.6401 28.3625 89.3544 29.0736 90.2176 29.0563Z" fill="#312D2D"/>
<path d="M86.1732 30.4058C86.1406 30.3929 86.1062 30.3853 86.0712 30.3832L83.8283 30.4285C83.7943 30.4285 83.7603 30.4398 83.7263 30.4511C83.5224 30.5418 83.4205 30.7457 83.5224 30.9722C83.6244 31.1988 84.0888 31.8219 84.9837 31.7992C85.89 31.7765 86.3205 31.1422 86.4111 30.9156C86.5017 30.689 86.3771 30.4851 86.1732 30.4058Z" fill="#DBA689"/>
<path d="M87.6562 33.3276C86.6593 33.9619 83.3175 34.0526 82.2866 33.4748C81.6976 33.1463 81.1085 33.6901 81.3691 34.2112C81.6183 34.7209 83.4761 35.8877 85.0507 35.8424C86.6253 35.7971 88.3925 34.5397 88.6077 34.0073C88.8343 33.4862 88.2339 32.9651 87.6562 33.3276Z" fill="#444444"/>
<path d="M81.9721 24.8092C81.6436 24.3221 80.8959 23.6197 79.4912 23.6537C78.0865 23.6877 77.3842 24.4467 77.0897 24.9565C76.9537 25.183 76.999 25.4322 77.101 25.5908C77.1916 25.7268 77.4635 25.8627 77.7467 25.7268C78.0299 25.5908 78.5963 25.2283 79.5365 25.1943C80.4881 25.1717 81.0658 25.5115 81.3604 25.6248C81.6549 25.7381 81.9154 25.5908 81.9947 25.4436C82.0967 25.2736 82.1194 25.0244 81.9721 24.8092Z" fill="#454140"/>
<path d="M92.5082 24.4912C92.1797 24.0041 91.4321 23.3017 90.0274 23.3357C88.6227 23.381 87.9203 24.1287 87.6258 24.6385C87.4899 24.865 87.5352 25.1142 87.6371 25.2728C87.7278 25.4088 87.9996 25.5447 88.2828 25.4088C88.566 25.2728 89.1324 24.9103 90.0727 24.8763C91.0242 24.8537 91.602 25.1935 91.8965 25.3068C92.191 25.4201 92.4516 25.2728 92.5309 25.1256C92.5855 25.0279 92.6123 24.9171 92.6083 24.8052C92.6043 24.6934 92.5697 24.5847 92.5082 24.4912Z" fill="#454140"/>
<path d="M84.384 9.97915C84.3727 9.97915 84.3727 9.97915 84.384 9.97915C84.3727 9.97915 84.3727 9.97915 84.384 9.97915C69.8953 10.4323 73.2938 26.892 73.2938 26.892C73.2938 26.892 73.9848 28.5799 74.302 29.3276C74.3473 29.4295 74.5059 29.4182 74.5286 29.3049C74.8004 27.9116 75.786 22.9838 76.3071 21.4772C76.6129 20.5936 77.5078 20.0612 78.4368 20.1971C79.8641 20.4124 82.1297 20.6729 84.6219 20.6163H84.6672C87.1594 20.5483 89.4137 20.1745 90.8297 19.8799C91.7473 19.6874 92.6762 20.1745 93.0274 21.0467C93.6278 22.5194 94.8512 27.3678 95.2024 28.7612C95.2364 28.8745 95.395 28.8858 95.4289 28.7725L96.3125 26.303C96.3239 26.2917 98.8614 9.68462 84.384 9.97915Z" fill="#312D2D"/>
<path d="M96.323 26.2908C96.323 26.2908 98.8605 9.67243 84.3718 9.97829L83.7148 10.0123C83.2843 10.0463 82.8651 10.0802 82.4687 10.1482H82.4573C82.4233 10.1482 82.4007 10.1595 82.378 10.1595C70.2343 12.006 73.3042 26.8912 73.3042 26.8912L74.3124 29.3154C74.3577 29.4174 74.5163 29.406 74.539 29.2927C74.8108 27.8881 75.7964 22.9717 76.3175 21.4763C76.6233 20.5927 77.5183 20.0603 78.4472 20.1963C79.8745 20.4115 82.1401 20.672 84.6323 20.6154H84.6776C87.1698 20.5474 89.4241 20.1736 90.8401 19.8791C91.7577 19.6865 92.6866 20.1736 93.0378 21.0459C93.6382 22.5185 94.873 27.4009 95.2241 28.7717C95.2581 28.8849 95.4054 28.8963 95.4507 28.783C95.7112 28.024 96.323 26.2908 96.323 26.2908Z" fill="url(#paint11_radial)"/>
<defs>
<linearGradient id="paint0_linear" x1="90.1348" y1="55.5521" x2="57.8712" y2="98.7666" gradientUnits="userSpaceOnUse">
<stop stop-color="#A52714"/>
<stop offset="0.529" stop-color="#D23F31"/>
<stop offset="1" stop-color="#ED4132"/>
</linearGradient>
<radialGradient id="paint1_radial" cx="0" cy="0" r="1" gradientUnits="userSpaceOnUse" gradientTransform="translate(84.8179 71.789) rotate(20.5788) scale(21.0468 40.7848)">
<stop stop-color="#212121"/>
<stop offset="0.999" stop-color="#212121" stop-opacity="0"/>
</radialGradient>
<linearGradient id="paint2_linear" x1="50.3022" y1="62.4206" x2="66.9467" y2="91.1578" gradientUnits="userSpaceOnUse">
<stop stop-color="#212121"/>
<stop offset="0.999" stop-color="#212121" stop-opacity="0"/>
</linearGradient>
<linearGradient id="paint3_linear" x1="86.1002" y1="46.9191" x2="85.9054" y2="69.2106" gradientUnits="userSpaceOnUse">
<stop stop-color="#42A5F5"/>
<stop offset="1" stop-color="#1E88E5"/>
</linearGradient>
<linearGradient id="paint4_linear" x1="57.0536" y1="59.6141" x2="49.6246" y2="43.4908" gradientUnits="userSpaceOnUse">
<stop stop-color="#A52714"/>
<stop offset="0.529" stop-color="#D23F31"/>
<stop offset="1" stop-color="#DB4437"/>
</linearGradient>
<linearGradient id="paint5_linear" x1="62.4502" y1="95.1884" x2="56.7862" y2="103.968" gradientUnits="userSpaceOnUse">
<stop offset="0.001" stop-color="#851F10"/>
<stop offset="0.841" stop-color="#A52714"/>
</linearGradient>
<linearGradient id="paint6_linear" x1="79.0593" y1="81.6462" x2="68.6952" y2="104.915" gradientUnits="userSpaceOnUse">
<stop stop-color="#42A5F5"/>
<stop offset="1" stop-color="#1E88E5"/>
</linearGradient>
<linearGradient id="paint7_linear" x1="71.0258" y1="70.7432" x2="95.5172" y2="76.0957" gradientUnits="userSpaceOnUse">
<stop stop-color="#D32F2F"/>
<stop offset="0.23" stop-color="#F44336"/>
<stop offset="0.742" stop-color="#F44336"/>
<stop offset="1" stop-color="#D32F2F"/>
</linearGradient>
<linearGradient id="paint8_linear" x1="87.5048" y1="50.6856" x2="87.5048" y2="61.8495" gradientUnits="userSpaceOnUse">
<stop stop-color="#0D47A1" stop-opacity="0"/>
<stop offset="1" stop-color="#0D47A1"/>
</linearGradient>
<linearGradient id="paint9_linear" x1="74.8785" y1="113.707" x2="49.601" y2="138.985" gradientUnits="userSpaceOnUse">
<stop stop-color="#A52714"/>
<stop offset="0.529" stop-color="#D23F31"/>
<stop offset="1" stop-color="#ED4132"/>
</linearGradient>
<linearGradient id="paint10_linear" x1="111.431" y1="27.0931" x2="95.7881" y2="3.43316" gradientUnits="userSpaceOnUse">
<stop stop-color="#A52714"/>
<stop offset="0.529" stop-color="#D23F31"/>
<stop offset="1" stop-color="#DB4437"/>
</linearGradient>
<radialGradient id="paint11_radial" cx="0" cy="0" r="1" gradientUnits="userSpaceOnUse" gradientTransform="translate(84.7295 23.702) rotate(-1.4898) scale(12.1453 13.7016)">
<stop offset="0.794" stop-color="#454140" stop-opacity="0"/>
<stop offset="1" stop-color="#454140"/>
</radialGradient>
</defs>
</svg>
