<svg width="64" height="64" viewBox="0 0 64 64" fill="none" xmlns="http://www.w3.org/2000/svg">
<circle cx="32.1203" cy="32.1203" r="30.7584" fill="#244D32"/>
<path d="M25.3333 25.3335H22V37.0002C22 38.8335 23.5 40.3335 25.3333 40.3335H40.3333V37.0002H25.3333V25.3335Z" fill="#38EF77"/>
<path d="M45.3334 17H32.0001C30.1667 17 28.6667 18.5 28.6667 20.3333V30.3333C28.6667 32.1667 30.1667 33.6667 32.0001 33.6667H45.3334C47.1667 33.6667 48.6667 32.1667 48.6667 30.3333V20.3333C48.6667 18.5 47.1667 17 45.3334 17ZM45.3334 30.3333H32.0001V23.6667H45.3334V30.3333Z" fill="#38EF77"/>
<path d="M18.6666 32H15.3333V43.6667C15.3333 45.5 16.8333 47 18.6666 47H33.6666V43.6667H18.6666V32Z" fill="#38EF77"/>
</svg>
