<svg width="153" height="153" viewBox="0 0 153 153" fill="none" xmlns="http://www.w3.org/2000/svg">
<g clip-path="url(#clip0)">
<path d="M57.9373 115.479C56.9888 115.6 56.2182 115.661 55.2101 115.604C54.202 115.547 53.4313 115.608 52.6009 115.491C50.7625 115.318 49.0421 114.906 47.262 114.317C43.7614 113.317 40.5554 111.427 37.7035 108.825C34.9114 106.4 32.6511 103.203 31.3392 99.8856C30.5646 98.1678 30.2051 96.5084 29.786 94.6713C29.6653 93.7228 29.6042 92.9522 29.4835 92.0038C29.3628 91.0553 29.4796 90.225 29.3589 89.2766L30.3723 91.7053C30.6707 92.594 31.0872 93.2453 31.5634 94.0744C32.2784 95.6144 33.1711 97.0947 34.0041 98.3973C35.7298 101.18 37.7513 103.666 40.2464 105.795C42.7414 107.924 45.3545 109.815 48.4412 111.35C49.8658 112.058 51.4681 112.707 53.0705 113.356C53.7828 113.71 54.6729 114.004 55.5629 114.299L57.9373 115.479Z" fill="#5EADD5"/>
<path d="M59.5537 122.057C59.1398 122.592 58.4885 123.008 57.8372 123.425C57.1859 123.841 56.7124 124.198 56.0014 124.437C54.8169 125.032 53.4546 125.688 51.973 125.987C49.2471 126.705 46.1644 126.949 43.4359 126.481C40.5296 126.072 37.7401 124.833 35.5422 123C34.4731 122.172 33.3442 121.167 32.3932 120.102C32.0364 119.628 31.6199 118.977 31.2034 118.326C31.0243 117.792 30.6675 117.319 30.4287 116.608C31.141 116.962 31.6756 117.376 32.1504 117.612C32.8628 117.966 33.3973 118.38 33.8722 118.616C35.0594 119.206 36.0688 119.856 37.1963 120.269C39.5109 121.272 41.7659 122.097 44.257 122.447C46.5703 122.857 49.1795 122.97 51.5512 122.964C52.737 122.962 54.0409 122.722 55.4045 122.659C55.9974 122.658 56.7084 122.419 57.3013 122.418C58.2498 122.297 58.783 122.118 59.5537 122.057Z" fill="#5EADD5"/>
<path d="M70.7139 22.1831C71.6623 22.0624 72.4926 22.1791 73.5007 22.2362C74.5089 22.2932 75.3392 22.4099 76.1696 22.5267C78.0677 22.8782 79.7881 23.2894 81.5682 23.8784C85.1284 25.0563 88.3942 27.1242 91.0683 29.7864C93.7424 32.4486 95.8249 35.7051 96.9591 39.0822C97.556 40.8597 97.9154 42.5191 98.1568 44.4159C98.2775 45.3643 98.3385 46.135 98.2815 47.1431C98.2245 48.1512 98.2855 48.9219 98.1687 49.7522L97.1553 47.3235C96.8569 46.4348 96.6181 45.7238 96.1419 44.8948L93.9971 40.2747C92.4491 37.4321 90.3679 34.7686 87.9909 32.4022C85.6139 30.0358 83.0008 28.1442 80.0919 26.5498C78.6076 25.6638 77.0052 25.0151 75.5209 24.129C74.8086 23.7749 73.9186 23.4804 73.0285 23.1859L70.7139 22.1831Z" fill="#5EADD5"/>
<path d="M85.9395 16.2788C86.7101 16.2178 87.303 16.2165 87.9557 16.3929C88.5486 16.3916 89.379 16.5083 90.0316 16.6847C91.3368 17.0376 92.642 17.3904 94.007 17.921C96.5591 19.0418 98.875 20.6376 100.599 22.8276C102.502 24.9579 103.752 27.5047 104.292 30.2902C104.532 31.5941 104.595 32.9577 104.657 34.3213C104.658 34.9142 104.542 35.7446 104.543 36.3375C104.367 36.9901 104.368 37.5831 104.014 38.2954L102.82 34.7405C102.402 33.4963 101.866 32.4895 101.508 31.423C100.377 29.2317 99.3048 27.2181 97.7595 25.5614C96.1545 23.7269 94.4911 22.3076 92.5903 20.7702C91.5809 20.1202 90.5117 19.2925 89.5023 18.6426C88.9677 18.2287 88.4929 17.9926 87.7806 17.6384C87.1266 16.8691 86.4143 16.5149 85.9395 16.2788Z" fill="#5EADD5"/>
<path d="M28.8906 64.9077C25.8729 67.7012 26.0612 72.3849 28.8547 75.4026L66.9491 114.629L77.4215 104.585L39.2674 65.181C36.4739 62.1633 31.8486 61.9364 28.8906 64.9077Z" fill="#E9CB65"/>
<path d="M100.2 82.2991L111.264 71.6609L67.7614 26.9327C64.7901 23.9747 59.987 23.8076 56.8513 26.8385C53.8933 29.8098 53.7261 34.6129 56.7571 37.7486L100.2 82.2991Z" fill="#E9CB65"/>
<path d="M56.9685 26.6014C56.6727 26.8985 56.3769 27.1956 56.1408 27.6705C59.2195 25.6477 63.3116 26.0536 65.9858 28.7158L109.488 73.444L111.441 71.6016L67.9383 26.8733C64.9074 23.7376 60.1043 23.5704 56.9685 26.6014Z" fill="#DC903A"/>
<path d="M77.3607 104.408L88.8386 93.2349L44.4449 47.6193C41.414 44.4836 36.1957 44.2581 33.06 47.289C29.9242 50.3199 29.8764 55.4785 32.9074 58.6143L77.3607 104.408Z" fill="#E9CB65"/>
<path d="M33.1196 47.4663C32.8238 47.7634 32.528 48.0605 32.2919 48.5354C35.3706 46.5126 39.8182 46.7991 42.552 49.6391L70.1276 78.1566L74.814 79.1541L44.5046 47.7966C41.4139 44.4831 36.4331 44.3757 33.1196 47.4663Z" fill="#DC903A"/>
<path d="M85.2734 89.6851L96.7512 78.5124L52.3576 32.8968C49.3266 29.7611 44.1084 29.5356 41.0323 32.7442C37.8965 35.7752 37.8488 40.9338 40.8797 44.0695L85.2734 89.6851Z" fill="#E9CB65"/>
<path d="M40.9721 32.5664C40.6763 32.8635 40.4402 33.3384 40.1444 33.6355C43.2231 31.6127 47.6707 31.8992 50.4046 34.7392L81.6053 66.9841L86.2917 67.9816L52.3571 32.8967C49.2665 29.5832 44.1079 29.5355 40.9721 32.5664Z" fill="#DC903A"/>
<path d="M28.8894 64.908C28.5936 65.2052 28.2978 65.5023 28.0617 65.9771C30.9627 64.014 34.877 64.4796 37.3734 67.2015L60.0756 90.6308L64.762 91.6283L39.326 65.3591C36.4728 62.1636 31.8474 61.9368 28.8894 64.908Z" fill="#DC903A"/>
<path d="M117.393 29.2529C111.341 27.1319 104.893 33.8464 105.28 47.9572C105.599 57.7398 106.138 60.5254 101.346 65.1017L95.9379 59.5995C95.9379 59.5995 53.6358 100.903 56.9042 104.156C56.9042 104.156 69.2747 120.968 82.5087 126.215C102.212 134.235 133.223 108.196 123.422 73.7091C117.685 53.6809 123.921 31.6101 117.393 29.2529Z" fill="#E9CB65"/>
<path d="M117.394 29.253C116.266 28.8405 115.081 28.8432 113.954 29.0235C114.192 29.1416 114.547 29.0222 114.785 29.1403C121.49 31.4377 119.143 42.7086 118.987 52.2551C118.767 59.8451 118.962 67.4934 121.585 74.1284C132.916 103.157 107.948 127.167 88.3827 127.803C108.249 129.241 135.943 104.514 124.195 74.2411C121.571 67.6062 121.317 60.373 121.596 52.3679C121.575 42.881 123.921 31.6102 117.394 29.253Z" fill="#EBA352"/>
<path d="M102.707 63.8537C92.1047 68.7987 81.2423 90.0498 98.4079 103.471C84.2043 88.8573 93.9512 72.53 101.288 65.5171C101.938 64.5076 102.707 63.8537 102.707 63.8537Z" fill="#DC903A"/>
</g>
<defs>
<clipPath id="clip0">
<rect width="120" height="120" fill="white" transform="translate(0.371094 38.8828) rotate(-18.5629)"/>
</clipPath>
</defs>
</svg>
