<svg width="24" height="25" viewBox="0 0 24 25" fill="none" xmlns="http://www.w3.org/2000/svg">
<g clip-path="url(#clip0)">
<path d="M8.96725 21.8563V18.5852C8.96722 17.7531 9.64554 17.077 10.4859 17.0715H13.5645C14.4088 17.0715 15.0934 17.7491 15.0934 18.5852V21.8665C15.0932 22.5729 15.6628 23.1503 16.3761 23.1668H18.4284C20.4743 23.1668 22.1329 21.5249 22.1329 19.4994V10.1939C22.122 9.39705 21.7441 8.6488 21.1067 8.16206L14.0878 2.56448C12.8581 1.58983 11.1102 1.58983 9.8805 2.56448L2.89238 8.17222C2.25262 8.65698 1.87409 9.40647 1.86621 10.204V19.4994C1.86621 21.5249 3.52475 23.1668 5.57065 23.1668H7.62297C8.35405 23.1668 8.94671 22.5801 8.94671 21.8563" stroke="#2D9CDB" stroke-width="2" stroke-linecap="round" stroke-linejoin="round"/>
</g>
<defs>
<clipPath id="clip0">
<rect width="24" height="24" fill="white" transform="translate(0 0.5)"/>
</clipPath>
</defs>
</svg>
